<?xml version="1.0" encoding="UTF-8"?>
<svg id="Calque_1" xmlns="http://www.w3.org/2000/svg" version="1.1" viewBox="0 0 564.5 584.2">
  <!-- Generator: Adobe Illustrator 29.3.1, SVG Export Plug-In . SVG Version: 2.1.0 Build 151)  -->
  <defs>
    <style>
      .st0 {
        fill: #1d1d1b;
      }

      .st1 {
        fill: #fff;
      }
    </style>
  </defs>
  <polygon class="st0" points="128.5 1.1 60.2 1.1 9.4 1.1 140.7 142.4 167.9 117.3 204.5 83.7 128.5 1.1"/>
  <polygon class="st1" points="381.1 577.4 263.2 577.3 215 524.9 278.8 466.2 381.1 577.4"/>
  <polygon class="st0" points="405.4 519.1 66.2 167.9 73.9 160.8 42.7 146 55.8 177.5 63.8 170.2 370.8 551 405.4 519.1"/>
  <polygon class="st1" points="480 329.6 492.3 318.3 421.9 241.9 409.6 253.2 369.8 209.9 440 145.3 309.2 1.1 128.5 1.1 204.5 83.7 167.9 117.3 259.8 217.2 189.6 281.8 335.6 435.7 582.9 435.7 480 329.6"/>
  <g>
    <path d="M341.6,271.9l-14.2-15.5-11.2,5.4-11.1-12.1,62.7-25.9,9.8,10.6-30.9,60.4-11.2-12.1,6.2-10.8ZM338.6,251.1l9.3,10.1,11.6-20-20.9,9.9Z"/>
    <path d="M373.3,300.9c-1.4,1.2-2.9,1.9-4.5,2.1-1.6.3-3.2,0-4.9-.6-1.6-.7-3.1-1.8-4.5-3.3-2.3-2.5-3.3-5.2-3-8.1.3-2.9,1.9-5.7,4.9-8.5l.9-.9c1.9-1.7,3.8-2.9,5.8-3.5,2-.6,3.9-.7,5.8-.2,1.9.5,3.5,1.6,5,3.2,2.1,2.3,3.2,4.7,3.3,7.2s-.9,4.8-2.8,7l-4.2-4.6c1.1-1.1,1.7-2.1,1.7-3.2,0-1-.5-2.1-1.5-3.2s-2.2-1.6-3.6-1.3c-1.3.3-2.9,1.2-4.8,2.9l-1.3,1.2c-2,1.9-3.2,3.4-3.6,4.7s0,2.6,1.1,3.8,2,1.6,3,1.7c1,.1,2.1-.3,3.2-1.3l4.2,4.5Z"/>
    <path d="M397.6,309.3l-5.2-5.7-15.4,14.2-4.2-4.6,15.4-14.2-5.1-5.6,3.5-3.2,14.6,15.8-3.5,3.2Z"/>
    <path d="M416.6,322.8l-12.4,11.4c-1.4,1.3-2.9,2.1-4.5,2.5-1.6.3-3.2.2-4.7-.4-1.6-.6-3.1-1.7-4.5-3.2-2.1-2.3-3.2-4.7-3.2-7.1s1-4.6,3-6.6l12.5-11.5,4.2,4.6-12.6,11.6c-2,2-2.2,3.9-.5,5.8.9.9,1.8,1.4,2.8,1.4s2-.5,3.2-1.6l12.4-11.4,4.2,4.6Z"/>
    <path d="M414.3,348.2c.7-.6,1-1.3.9-2.1,0-.8-.4-2-1.1-3.6-.7-1.6-1.2-2.9-1.5-4-1.1-3.6-.5-6.3,1.6-8.3s2.3-1.5,3.6-1.6c1.4-.1,2.8.2,4.3.9,1.5.7,2.9,1.8,4.1,3.2s2.1,2.8,2.6,4.3c.5,1.5.6,3,.2,4.4-.3,1.4-1.1,2.7-2.3,3.7l-4.2-4.6c.8-.7,1.2-1.5,1.1-2.4,0-.9-.4-1.7-1.1-2.5s-1.5-1.3-2.3-1.4-1.5,0-2,.6-.7,1.1-.6,2c0,.9.5,2.2,1.3,3.9.8,1.7,1.3,3.2,1.6,4.5.7,3.1,0,5.7-2.1,7.6-1.7,1.5-3.5,2.1-5.6,1.7-2.1-.4-4.1-1.7-6.1-3.8s-2.4-3.2-3-4.9c-.6-1.8-.7-3.4-.3-4.9.4-1.5,1.2-2.8,2.4-4l4.2,4.6c-1,.9-1.5,1.9-1.5,2.9,0,1,.5,2,1.6,3.2s1.4,1.2,2.1,1.3c.7.1,1.4,0,2-.6Z"/>
  </g>
  <g>
    <path d="M312,67.7c-.5-1.6-1.4-3.1-2.7-4.6l-7-7.6-18.9,17.4,4.2,4.6,6.4-5.9,2.7,2.9c2.1,2.3,4.3,3.6,6.7,3.9s4.4-.4,6.3-2.1,2.1-2.5,2.5-4c.4-1.5.4-3.1-.1-4.7ZM302.8,72.8c-.9,0-1.7-.5-2.5-1.4l-2.8-3,5.5-5,2.8,3c.7.8,1.1,1.7,1,2.7,0,1-.6,1.9-1.5,2.7s-1.6,1.1-2.5,1Z"/>
    <path d="M322,95c1.4-.3,2.7-1,4-2.2s2.6-3.6,2.5-5.8c-.2-2.2-1.3-4.4-3.4-6.6l-6.9-7.5-18.9,17.4,4.2,4.6,6.7-6.2,2.3,2.5-3.6,9.5,4.5,4.9.2-.2,4-11c1.6.6,3.1.8,4.4.6ZM318.9,89.7c-.9,0-1.7-.5-2.5-1.3l-2.7-2.9,5.2-4.8,2.7,2.9c.8.9,1.2,1.7,1.1,2.6s-.5,1.7-1.3,2.4-1.7,1.1-2.5,1.1Z"/>
    <polygon points="315.3 107.7 327.3 120.8 330.8 117.5 323 109 327.5 104.9 334.1 112.1 337.5 108.9 330.9 101.8 334.9 98.1 342.7 106.6 346.3 103.3 334.2 90.3 315.3 107.7"/>
    <polygon points="340.9 125.2 351.3 108.8 346.6 103.7 333.5 127.5 338.1 132.5 362.9 121.4 358.2 116.3 340.9 125.2"/>
    <rect x="344.2" y="131" width="25.7" height="6.2" transform="translate(3.5 277.3) rotate(-42.6)"/>
    <path d="M372.9,150.4c-.3-1.3-.8-2.8-1.6-4.5-.8-1.7-1.2-3-1.3-3.9,0-.9.1-1.5.6-2s1.2-.7,2-.6,1.6.6,2.3,1.4,1.1,1.6,1.1,2.5c0,.9-.4,1.7-1.1,2.4l4.2,4.6c1.2-1.1,1.9-2.3,2.3-3.7.3-1.4.3-2.9-.2-4.4-.5-1.5-1.4-3-2.6-4.3s-2.7-2.4-4.1-3.2c-1.5-.7-2.9-1-4.3-.9-1.4.1-2.6.7-3.6,1.6-2.1,1.9-2.6,4.7-1.6,8.3.3,1.1.8,2.4,1.5,4,.7,1.6,1.1,2.7,1.1,3.6,0,.8-.2,1.5-.9,2.1s-1.2.7-2,.6c-.7-.1-1.4-.6-2.1-1.3-1.1-1.2-1.6-2.3-1.6-3.2,0-1,.5-1.9,1.5-2.9l-4.2-4.6c-1.2,1.1-2.1,2.5-2.4,4-.4,1.5-.3,3.1.3,4.9.6,1.8,1.6,3.4,3,4.9,2,2.2,4.1,3.5,6.1,3.8,2.1.4,4-.2,5.6-1.7s2.8-4.4,2.1-7.6Z"/>
    <polygon points="281.5 245.1 278.7 242.1 271.4 248.7 274.2 251.8 273 252.9 274.5 254.6 225.5 299.7 226.8 301.1 275.9 256 277.2 257.5 391.4 152.4 387.2 147.8 281.5 245.1"/>
    <path d="M404.5,168.4c-.4-2-1.3-3.7-2.8-5.3-1.5-1.6-3.2-2.7-5.2-3.3-1.9-.6-3.9-.5-6,0-2,.6-4,1.8-5.9,3.5l-1.1,1c-1.8,1.7-3,3.5-3.7,5.5-.7,2-.9,3.9-.5,5.8.4,1.9,1.4,3.7,2.8,5.3s3.2,2.7,5.1,3.3c1.9.6,3.9.5,6-.1s4-1.8,5.9-3.5l.9-.8c1.8-1.7,3.1-3.5,3.9-5.5.8-2,1-4,.6-5.9ZM394.9,176.1c-1.8,1.7-3.5,2.7-5.1,2.9-1.6.3-2.9-.2-3.9-1.3s-1.5-2.6-1-4.1c.4-1.5,1.6-3.2,3.4-4.9l1.4-1.3c3.6-3,6.4-3.4,8.5-1.1s1.4,2.5,1,4c-.4,1.5-1.5,3.2-3.4,4.9l-.9.8Z"/>
    <polygon points="409.8 196 415.4 178.5 411.2 173.9 392.3 191.4 396.5 195.9 408.3 185.1 402.7 202.6 406.9 207.2 425.8 189.7 421.6 185.2 409.8 196"/>
    <path d="M429.8,212.2c-.3-1.3-.8-2.8-1.6-4.5-.8-1.7-1.2-3-1.3-3.9,0-.9.1-1.5.6-2s1.2-.7,2-.6,1.6.6,2.3,1.4,1.1,1.6,1.1,2.5c0,.9-.4,1.7-1.1,2.4l4.2,4.6c1.2-1.1,1.9-2.3,2.3-3.7.3-1.4.3-2.9-.2-4.4-.5-1.5-1.4-3-2.6-4.3s-2.7-2.4-4.1-3.2c-1.5-.7-2.9-1-4.3-.9-1.4.1-2.6.7-3.6,1.6-2.1,1.9-2.6,4.7-1.6,8.3.3,1.1.8,2.4,1.5,4,.7,1.6,1.1,2.7,1.1,3.6,0,.8-.2,1.5-.9,2.1s-1.2.7-2,.6c-.7-.1-1.4-.6-2.1-1.3-1.1-1.2-1.6-2.3-1.6-3.2,0-1,.5-1.9,1.5-2.9l-4.2-4.6c-1.2,1.1-2.1,2.5-2.4,4-.4,1.5-.3,3.1.3,4.9.6,1.8,1.6,3.4,3,4.9,2,2.2,4.1,3.5,6.1,3.8,2.1.4,4-.2,5.6-1.7s2.8-4.4,2.1-7.6Z"/>
    <rect x="267.2" y="205.7" width="99.6" height="1" transform="translate(-55.9 269.2) rotate(-42.6)"/>
    <rect x="290.8" y="256.3" width="6.8" height="6.6" transform="translate(-98.1 267.8) rotate(-42.6)"/>
  </g>
  <g>
    <path d="M406.5,268.4l-1.9-2.1,24.9-6.6,1.9,2.1-24.9,6.6Z"/>
    <path d="M411.9,274.2l-1.9-2.1,24.9-6.6,1.9,2.1-24.9,6.6Z"/>
    <path d="M417.2,280l-1.9-2.1,24.9-6.6,1.9,2.1-24.9,6.6Z"/>
    <path d="M422.6,285.8l-1.9-2.1,24.9-6.6,1.9,2.1-24.9,6.6Z"/>
    <path d="M428,291.7l-1.9-2.1,24.9-6.6,1.9,2.1-24.9,6.6Z"/>
    <path d="M433.3,297.5l-1.9-2.1,24.9-6.6,1.9,2.1-24.9,6.6Z"/>
    <path d="M438.7,303.3l-1.9-2.1,24.9-6.6,1.9,2.1-24.9,6.6Z"/>
    <path d="M444,309.1l-1.9-2.1,24.9-6.6,1.9,2.1-24.9,6.6Z"/>
    <path d="M449.4,314.9l-1.9-2.1,24.9-6.6,1.9,2.1-24.9,6.6Z"/>
  </g>
  <g>
    <path d="M428.6,96.2l29.5,32-14.2,13-46.4-50.4,76.3-70.3,16.9,18.4-62.2,57.2Z"/>
    <path d="M488.4,106.2l-15.2-16.5-10.4,9.6,18,19.5-8.1,7.4-27.7-30,43.6-40.1,27.7,30.1-8.1,7.5-18-19.6-9.2,8.5,15.2,16.5-7.8,7.2Z"/>
    <path d="M508.9,142.4c1.5-1.4,2.2-3.1,2.1-4.9-.1-1.9-1-4.6-2.6-8.2-1.6-3.6-2.8-6.6-3.5-9.2-2.4-8.2-1.2-14.5,3.6-19s5.2-3.5,8.3-3.8c3.1-.3,6.4.4,9.8,2,3.4,1.6,6.6,4.1,9.5,7.3s4.9,6.5,6.1,10c1.2,3.5,1.4,6.9.6,10.2s-2.5,6.1-5.2,8.6l-9.7-10.5c1.8-1.6,2.7-3.4,2.6-5.4,0-2-.9-3.9-2.6-5.8s-3.5-3-5.3-3.3c-1.8-.3-3.4.1-4.7,1.3s-1.6,2.6-1.4,4.6c.2,2,1.2,5,3,8.9,1.8,3.9,3,7.3,3.7,10.3,1.6,7.2,0,13-4.7,17.4s-8.1,4.8-13,4c-4.8-.9-9.5-3.8-14.2-8.8-3.3-3.5-5.6-7.3-6.9-11.4-1.4-4-1.6-7.8-.7-11.3.9-3.5,2.7-6.5,5.6-9.2l9.7,10.5c-2.3,2.2-3.5,4.3-3.5,6.6,0,2.2,1.3,4.7,3.8,7.4,1.6,1.7,3.2,2.8,4.9,3.1,1.7.3,3.2-.1,4.6-1.4Z"/>
  </g>
</svg>